<?xml version="1.0" standalone="no"?>
<!DOCTYPE svg PUBLIC "-//W3C//DTD SVG 20010904//EN"
 "http://www.w3.org/TR/2001/REC-SVG-20010904/DTD/svg10.dtd">
<svg version="1.0" xmlns="http://www.w3.org/2000/svg"
 width="260.000000pt" height="260.000000pt" viewBox="0 0 260.000000 260.000000"
 preserveAspectRatio="xMidYMid meet">
<metadata>
Created by potrace 1.11, written by Peter Selinger 2001-2013
</metadata>
<g transform="translate(0.000000,260.000000) scale(0.100000,-0.100000)"
fill="#000000" stroke="none">
<path d="M550 1601 c0 -15 8 -21 31 -23 30 -3 33 -8 159 -298 114 -262 131
-295 151 -295 20 0 33 28 134 295 l111 295 32 3 c24 2 32 8 32 23 0 17 -8 19
-95 19 -88 0 -95 -1 -95 -20 0 -16 7 -20 35 -20 19 0 35 -3 35 -7 0 -21 -156
-431 -162 -425 -6 7 -168 417 -168 427 0 3 16 5 35 5 28 0 35 4 35 20 0 19 -7
20 -135 20 -127 0 -135 -1 -135 -19z"/>
<path d="M1210 1600 c0 -16 7 -20 35 -20 l35 0 0 -275 0 -275 -35 0 c-28 0
-35 -4 -35 -20 0 -19 7 -20 145 -20 138 0 145 1 145 20 0 17 -7 20 -50 20
l-50 0 0 85 0 85 73 0 c100 0 144 15 193 64 83 82 86 216 6 299 -43 45 -105
57 -294 57 -161 0 -168 -1 -168 -20z m330 -35 c44 -23 63 -68 63 -150 0 -78
-24 -140 -64 -164 -12 -7 -49 -16 -81 -18 l-58 -6 0 177 0 176 55 0 c31 0 69
-7 85 -15z"/>
<path d="M1790 1600 c0 -16 7 -20 35 -20 l35 0 0 -275 0 -275 -35 0 c-28 0
-35 -4 -35 -20 0 -19 7 -20 100 -20 93 0 100 1 100 20 0 17 -7 20 -40 20 l-40
0 0 242 0 242 73 -105 c39 -58 119 -176 177 -262 l105 -156 43 -1 42 0 0 295
0 295 40 0 c33 0 40 3 40 20 0 19 -7 20 -106 20 -95 0 -105 -2 -102 -17 2 -13
14 -19 41 -21 l37 -3 0 -217 c0 -124 -4 -212 -9 -206 -5 5 -77 111 -160 237
l-151 227 -95 0 c-88 0 -95 -1 -95 -20z"/>
<path d="M396 1395 c-44 -23 -46 -24 -46 -5 0 18 -7 20 -91 20 -81 0 -90 -2
-87 -17 2 -11 14 -19 31 -21 l27 -3 0 -169 0 -169 -27 -3 c-17 -2 -29 -10 -31
-20 -3 -16 8 -18 132 -18 129 0 136 1 136 20 0 17 -7 20 -45 20 l-46 0 3 147
3 148 43 23 c41 23 42 23 42 3 0 -28 27 -51 59 -51 35 0 51 17 51 55 0 66 -70
84 -154 40z"/>
</g>
</svg>
