<?xml version="1.0" standalone="no"?>
<!DOCTYPE svg PUBLIC "-//W3C//DTD SVG 20010904//EN"
 "http://www.w3.org/TR/2001/REC-SVG-20010904/DTD/svg10.dtd">
<svg version="1.0" xmlns="http://www.w3.org/2000/svg"
 width="260.000000pt" height="260.000000pt" viewBox="0 0 260.000000 260.000000"
 preserveAspectRatio="xMidYMid meet">
<metadata>
Created by potrace 1.11, written by Peter Selinger 2001-2013
</metadata>
<g transform="translate(0.000000,260.000000) scale(0.100000,-0.100000)"
fill="#000000" stroke="none">
<path d="M555 1610 c-6 -10 34 -31 46 -24 7 4 14 -10 80 -164 27 -63 62 -141
77 -175 16 -34 48 -108 72 -164 33 -75 49 -103 62 -103 10 0 18 2 18 4 0 5
128 347 139 371 5 11 27 67 48 125 39 104 39 105 71 104 25 0 32 3 30 15 -3
13 -21 17 -95 19 -83 2 -91 1 -89 -15 2 -14 11 -17 39 -16 21 2 37 0 37 -3 0
-2 -20 -57 -44 -122 -24 -64 -62 -166 -84 -227 l-39 -109 -16 34 c-22 49 -155
392 -159 410 -2 11 6 15 32 15 25 0 36 5 38 18 3 15 -8 17 -127 17 -76 0 -132
-4 -136 -10z"/>
<path d="M1216 1611 c-12 -18 2 -29 33 -26 17 1 31 -3 33 -9 3 -9 2 -508 -1
-543 -1 -6 -14 -10 -31 -9 -25 2 -40 -9 -40 -30 0 -2 65 -4 145 -4 122 0 145
2 145 15 0 8 -8 15 -17 16 -10 0 -34 2 -53 2 l-35 2 0 84 c-1 50 3 84 9 86 6
2 48 6 94 8 107 6 165 38 201 110 63 127 11 263 -112 294 -47 12 -364 15 -371
4z m329 -45 c39 -25 56 -61 62 -123 7 -76 -11 -139 -51 -179 -29 -29 -36 -31
-96 -30 l-65 1 -1 170 c0 94 1 173 3 177 6 13 123 0 148 -16z"/>
<path d="M1790 1605 c0 -14 11 -18 53 -18 16 0 17 -20 17 -284 0 -221 -3 -284
-12 -282 -34 4 -58 -2 -58 -16 0 -12 17 -15 95 -15 57 0 95 4 95 10 0 6 0 13
0 17 0 4 -17 7 -38 7 l-37 1 -2 253 -1 252 27 -37 c14 -21 49 -72 76 -113 28
-41 55 -80 60 -86 6 -7 54 -78 108 -158 l98 -146 39 0 40 0 0 299 0 300 32 -2
c24 -2 34 3 36 16 3 15 -6 17 -92 17 -86 0 -96 -2 -96 -18 0 -14 8 -18 38 -17
l37 0 2 -229 c3 -223 2 -228 -15 -205 -10 13 -70 101 -132 194 -63 94 -130
194 -150 222 l-35 53 -92 0 c-76 0 -93 -3 -93 -15z"/>
<path d="M416 1400 c-21 -11 -44 -24 -52 -31 -14 -12 -18 -7 -15 24 2 15 -8
17 -82 17 -66 0 -86 -3 -91 -15 -4 -11 2 -15 22 -16 15 -1 30 -1 33 -1 4 1 7
-79 7 -177 l0 -179 -29 2 c-22 2 -29 -2 -29 -16 0 -16 11 -18 124 -18 69 0
127 4 131 9 9 15 -27 30 -56 24 -34 -6 -35 0 -33 159 1 89 5 132 14 143 13 16
70 50 73 43 24 -49 36 -64 56 -66 28 -4 61 24 61 53 0 56 -66 78 -134 45z"/>
</g>
</svg>
